# xmcd
#
# Track frame offsets: 
#        182
#        25895
#        46110
#        55372
#        69850
#        83045
#        98540
#        117302
#        135957
#        145877
#        154477
#        164657
#        175835
#        184437
#        196675
#        207852
#        217902
#        238677
#        259622
#        273102
#        292322
#        302470
#        312747
#
# Disc length: 4288 seconds
#
# Revision: 0
# Processed by: cddbd v1.5.1PL0 Copyright (c) Steve Scherf et al.
# Submitted via: ExactAudioCopy v0.95a4
#
DISCID=4a10be17
DTITLE=Various Artist - Satan Get Back
DYEAR=1900
DGENRE=Country
TTITLE0=Brother Claude Ely - I'm Crying Holy Unto The Lord
TTITLE1=Brother Claude Ely - There's A Leak In This Old Building
TTITLE2=Brother Claude Ely - Send Down That Rain
TTITLE3=Brother Claude Ely - There Ain't No Grave Gonna Hold My Body D
TTITLE3=own
TTITLE4=Brother Claude Ely - Talk About Jesus
TTITLE5=The Cumberland Five - I'm Just A Stranger Here
TTITLE6=Brother Claude Ely - Thank You Jesus
TTITLE7=Brother Claude Ely - I Want To Rest
TTITLE8=Brother Claude Ely - You've Got To Move
TTITLE9=Brother Claude Ely - Farther On
TTITLE10=Brother Claude Ely - Jesus Is The Rock
TTITLE11=Brother Claude Ely - Little David, Play On Your Harp
TTITLE12=Brother Claude Ely - There's A Higher Power
TTITLE13=Brother Claude Ely - Holy, Holy, Holy (That's All Right)
TTITLE14=Brother Claude Ely - Dip Your Finger In The Water (And Cool M
TTITLE14=y Thumb)
TTITLE15=Brother Claude Ely - So You Want To Shout
TTITLE16=Brother Claude Ely - Those Prayers And Words Still Guide Me
TTITLE17=Brother Claude Ely - My Crucified One
TTITLE18=Brother Claude Ely - The Old Fireside
TTITLE19=Brother Claude Ely - Fare You Well
TTITLE20=Brother Claude Ely - I Want To Go To Heaven
TTITLE21=Brother Claude Ely - You Took The Wrong Road Again
TTITLE22=Brother Claude Ely - Stop That Train
EXTD=
EXTT0=
EXTT1=
EXTT2=
EXTT3=
EXTT4=
EXTT5=
EXTT6=
EXTT7=
EXTT8=
EXTT9=
EXTT10=
EXTT11=
EXTT12=
EXTT13=
EXTT14=
EXTT15=
EXTT16=
EXTT17=
EXTT18=
EXTT19=
EXTT20=
EXTT21=
EXTT22=
PLAYORDER=
